<svg xmlns="http://www.w3.org/2000/svg" width="410" height="404" viewBox="0 0 410 404" fill="none">
  <path d="M399.641 59.525a25.167 25.167 0 0 0-9.082-14.353L320.834 3.448A25.167 25.167 0 0 0 306.527 0H103.287a25.167 25.167 0 0 0-14.31 3.448L19.441 45.172A25.167 25.167 0 0 0 9.55 59.525L0 114.203l205 289.797 205-289.797-10.359-54.678Z" fill="#FFEA83" />
  <path d="m205 403.999 205-289.796-10.359-54.678a25.167 25.167 0 0 0-9.082-14.353l-80.16-42.724A25.167 25.167 0 0 0 306.527 0H205v403.999Z" fill="#FFC700" />
  <path d="M205 64 80 233l125 56 125-56L205 64Z" fill="#1E40AF" />
  <path d="M205 64v225l125-56-125-169Z" fill="#2563EB" />
</svg>
